<svg aria-hidden="true" style="position: absolute; width: 0; height: 0; overflow: hidden;" version="1.1" xmlns="http://www.w3.org/2000/svg" xmlns:xlink="http://www.w3.org/1999/xlink">
<defs>
<symbol id="icon-chart" viewBox="0 0 32 32">
<path d="M31 24h-27v-19c0-0.553-0.447-1-1-1h-2c-0.552 0-1 0.447-1 1v21c0 1.104 0.896 2 2 2h29c0.552 0 1-0.448 1-1v-2c0-0.552-0.448-1-1-1zM29 6h-7.379c-1.336 0-2.006 1.616-1.061 2.561l2.025 2.025-4.586 4.586-4.586-4.586c-0.781-0.781-2.047-0.781-2.828 0l-4.293 4.293c-0.391 0.391-0.391 1.024 0 1.414l1.414 1.414c0.391 0.391 1.024 0.391 1.414 0l2.879-2.879 4.586 4.586c0.781 0.781 2.047 0.781 2.828 0l6-6 2.025 2.025c0.945 0.945 2.561 0.276 2.561-1.061v-7.378c0.001-0.553-0.447-1-0.999-1z"></path>
</symbol>
<symbol id="icon-child" viewBox="0 0 24 32">
<path d="M7.5 4.5c0-2.485 2.015-4.5 4.5-4.5s4.5 2.015 4.5 4.5c0 2.485-2.015 4.5-4.5 4.5s-4.5-2.015-4.5-4.5zM23.414 4.586c-0.781-0.781-2.047-0.781-2.828 0l-5.414 5.414h-6.343l-5.414-5.414c-0.781-0.781-2.047-0.781-2.828 0s-0.781 2.047 0 2.828l5.914 5.914v16.672c0 1.105 0.895 2 2 2h1c1.105 0 2-0.895 2-2v-7h1v7c0 1.105 0.895 2 2 2h1c1.105 0 2-0.895 2-2v-16.672l5.914-5.914c0.781-0.781 0.781-2.047 0-2.828z"></path>
</symbol>
<symbol id="icon-dog" viewBox="0 0 36 32">
<path d="M18.629 14l9.371 3.347v13.653c0 0.552-0.448 1-1 1v0h-4c-0.552 0-1-0.448-1-1v0-7h-10v7c0 0.552-0.448 1-1 1v0h-4c-0.552 0-1-0.448-1-1v0-13.369c-2.322-0.828-4-3.027-4-5.631 0-1.105 0.895-2 2-2s2 0.895 2 2v0c0.002 1.104 0.896 1.998 2 2h0zM34 7v2c0 2.209-1.791 4-4 4v0h-2v2.224l-8-2.857v-9.367c0-0.891 1.076-1.337 1.707-0.707l1.705 1.707h3.352c0.682 0 1.484 0.495 1.789 1.106l0.448 0.894h4c0.552 0 1 0.448 1 1v0zM27 7c0-0.552-0.448-1-1-1s-1 0.448-1 1c0 0.552 0.448 1 1 1v0c0.552 0 1-0.448 1-1v0z"></path>
</symbol>
<symbol id="icon-heart" viewBox="0 0 32 32">
<path d="M28.894 3.913c-3.425-2.919-8.519-2.394-11.662 0.85l-1.231 1.269-1.231-1.269c-3.137-3.244-8.238-3.769-11.662-0.85-3.925 3.35-4.131 9.363-0.619 12.994l12.094 12.488c0.781 0.806 2.050 0.806 2.831 0l12.094-12.488c3.519-3.631 3.313-9.644-0.613-12.994z"></path>
</symbol>
<symbol id="icon-info" viewBox="0 0 12 32">
<path d="M1.25 26.514h1.25v-9.029h-1.25c-0.69 0-1.25-0.56-1.25-1.25v-2.986c0-0.69 0.56-1.25 1.25-1.25h7c0.69 0 1.25 0.56 1.25 1.25v13.264h1.25c0.69 0 1.25 0.56 1.25 1.25v2.986c0 0.69-0.56 1.25-1.25 1.25h-9.5c-0.69 0-1.25-0.56-1.25-1.25v-2.986c0-0.69 0.56-1.25 1.25-1.25zM6 0c-2.485 0-4.5 2.015-4.5 4.5s2.015 4.5 4.5 4.5 4.5-2.015 4.5-4.5-2.015-4.5-4.5-4.5z"></path>
</symbol>
<symbol id="icon-marker-map" viewBox="0 0 24 32">
<path d="M10.767 31.354c-9.081-13.165-10.767-14.516-10.767-19.354 0-6.627 5.373-12 12-12s12 5.373 12 12c0 4.838-1.686 6.189-10.767 19.354-0.596 0.861-1.871 0.861-2.466 0zM12 17c2.761 0 5-2.239 5-5s-2.239-5-5-5-5 2.239-5 5 2.239 5 5 5z"></path>
</symbol>
<symbol id="icon-money" viewBox="0 0 40 32">
<path d="M38.822 3.404c-2.424-1.017-4.851-1.404-7.276-1.404-7.698-0.001-15.396 3.896-23.094 3.896-1.931 0-3.86-0.245-5.791-0.857-0.217-0.069-0.434-0.101-0.647-0.101-1.076 0-2.016 0.832-2.016 1.988v19.829c0 0.789 0.452 1.538 1.177 1.841 2.424 1.017 4.851 1.404 7.276 1.404 7.698 0 15.396-3.897 23.094-3.897 1.931 0 3.86 0.245 5.791 0.858 0.217 0.069 0.434 0.101 0.647 0.101 1.076 0 2.016-0.832 2.016-1.988v-19.828c-0.001-0.79-0.453-1.538-1.178-1.842zM3 8.264c1.258 0.315 2.57 0.473 3.92 0.558-0.367 1.837-1.982 3.221-3.92 3.221v-3.779zM3 26.076v-2.986c2.148 0 3.886 1.704 3.982 3.837-1.408-0.113-2.724-0.394-3.982-0.851zM20 22c-2.762 0-5-2.687-5-6s2.239-6 5-6 5 2.686 5 6c0 3.314-2.239 6-5 6zM37 23.736c-1.095-0.274-2.232-0.428-3.395-0.527 0.367-1.63 1.719-2.867 3.395-3.080v3.608zM37 8.979c-1.931-0.244-3.429-1.856-3.488-3.847 1.221 0.136 2.381 0.389 3.488 0.791v3.056z"></path>
</symbol>
<symbol id="icon-search" viewBox="0 0 32 32">
<path d="M31.563 27.669l-6.231-6.231c-0.281-0.281-0.663-0.438-1.063-0.438h-1.019c1.725-2.206 2.75-4.981 2.75-8 0-7.181-5.819-13-13-13s-13 5.819-13 13 5.819 13 13 13c3.019 0 5.794-1.025 8-2.75v1.019c0 0.4 0.156 0.781 0.438 1.063l6.231 6.231c0.587 0.587 1.538 0.587 2.119 0l1.769-1.769c0.587-0.587 0.587-1.538 0.006-2.125zM13 21c-4.419 0-8-3.575-8-8 0-4.419 3.575-8 8-8 4.419 0 8 3.575 8 8 0 4.419-3.575 8-8 8z"></path>
</symbol>
<symbol id="icon-star" viewBox="0 0 36 32">
<path d="M16.206 1.113l-4.081 8.275-9.131 1.331c-1.637 0.238-2.294 2.256-1.106 3.412l6.606 6.438-1.563 9.094c-0.281 1.644 1.45 2.875 2.9 2.106l8.169-4.294 8.169 4.294c1.45 0.762 3.181-0.462 2.9-2.106l-1.563-9.094 6.606-6.438c1.188-1.156 0.531-3.175-1.106-3.412l-9.131-1.331-4.081-8.275c-0.731-1.475-2.85-1.494-3.587 0z"></path>
</symbol>
</defs>
</svg>
