<svg aria-hidden="true" style="position: absolute; width: 0; height: 0; overflow: hidden;" version="1.1" xmlns="http://www.w3.org/2000/svg" xmlns:xlink="http://www.w3.org/1999/xlink">
<defs>
<symbol id="icon-check-circle" viewBox="0 0 32 32">
<path d="M31.5 16c0 8.56-6.94 15.5-15.5 15.5s-15.5-6.94-15.5-15.5 6.94-15.5 15.5-15.5 15.5 6.94 15.5 15.5zM14.207 24.207l11.5-11.5c0.39-0.39 0.39-1.024 0-1.414l-1.414-1.414c-0.39-0.391-1.024-0.391-1.414 0l-9.379 9.379-4.379-4.379c-0.39-0.39-1.024-0.39-1.414 0l-1.414 1.414c-0.391 0.39-0.391 1.024 0 1.414l6.5 6.5c0.391 0.391 1.024 0.391 1.414 0z"></path>
</symbol>
<symbol id="icon-hands-helping" viewBox="0 0 40 32">
<path d="M30.5 12h-9.5v3.5c0 2.481-2.019 4.5-4.5 4.5s-4.5-2.019-4.5-4.5v-7.6l-4.056 2.438c-1.206 0.719-1.944 2.025-1.944 3.425v2.956l-5 2.887c-0.956 0.55-1.288 1.775-0.731 2.731l5 8.663c0.55 0.956 1.775 1.281 2.731 0.731l6.463-3.731h8.537c2.206 0 4-1.794 4-4h1c1.106 0 2-0.894 2-2v-4h0.5c0.831 0 1.5-0.669 1.5-1.5v-3c0-0.831-0.669-1.5-1.5-1.5zM39.731 9.662l-5-8.662c-0.55-0.956-1.775-1.281-2.731-0.731l-6.462 3.731h-6.387c-0.75 0-1.481 0.213-2.119 0.606l-2.094 1.306c-0.588 0.362-0.938 1.006-0.938 1.694v7.894c0 1.381 1.119 2.5 2.5 2.5s2.5-1.119 2.5-2.5v-5.5h11.5c1.931 0 3.5 1.569 3.5 3.5v1.781l5-2.887c0.956-0.556 1.281-1.775 0.731-2.731z"></path>
</symbol>
<symbol id="icon-heart" viewBox="0 0 32 32">
<path d="M28.65 4.019c-3.613-3.038-9.194-2.581-12.65 0.938-3.456-3.519-9.037-3.981-12.65-0.938-4.7 3.956-4.013 10.406-0.663 13.825l10.963 11.169c0.625 0.637 1.463 0.994 2.35 0.994 0.894 0 1.725-0.35 2.35-0.988l10.963-11.169c3.344-3.419 4.044-9.869-0.663-13.831zM27.175 15.738l-10.963 11.169c-0.15 0.15-0.275 0.15-0.425 0l-10.963-11.169c-2.281-2.325-2.744-6.725 0.456-9.419 2.431-2.044 6.181-1.737 8.531 0.656l2.188 2.231 2.188-2.231c2.363-2.406 6.113-2.7 8.531-0.662 3.194 2.694 2.719 7.119 0.456 9.425z"></path>
</symbol>
<symbol id="icon-list" viewBox="0 0 32 32">
<path d="M3 3c-1.657 0-3 1.343-3 3s1.343 3 3 3c1.657 0 3-1.343 3-3v0c0-1.657-1.343-3-3-3v0zM3 13c-1.657 0-3 1.343-3 3s1.343 3 3 3c1.657 0 3-1.343 3-3v0c0-1.657-1.343-3-3-3v0zM3 23c-1.657 0-3 1.343-3 3s1.343 3 3 3c1.657 0 3-1.343 3-3v0c0-1.657-1.343-3-3-3v0zM31 24h-20c-0.552 0-1 0.448-1 1v0 2c0 0.552 0.448 1 1 1v0h20c0.552 0 1-0.448 1-1v0-2c0-0.552-0.448-1-1-1v0zM31 4h-20c-0.552 0-1 0.448-1 1v0 2c0 0.552 0.448 1 1 1v0h20c0.552 0 1-0.448 1-1v0-2c0-0.552-0.448-1-1-1v0zM31 14h-20c-0.552 0-1 0.448-1 1v0 2c0 0.552 0.448 1 1 1v0h20c0.552 0 1-0.448 1-1v0-2c0-0.552-0.448-1-1-1v0z"></path>
</symbol>
<symbol id="icon-map-marker" viewBox="0 0 24 32">
<path d="M10.767 31.354c-9.081-13.165-10.767-14.516-10.767-19.354 0-6.627 5.373-12 12-12s12 5.373 12 12c0 4.838-1.686 6.189-10.767 19.354-0.596 0.861-1.871 0.861-2.466 0zM12 17c2.761 0 5-2.239 5-5s-2.239-5-5-5-5 2.239-5 5 2.239 5 5 5z"></path>
</symbol>
<symbol id="icon-mobile" viewBox="0 0 20 32">
<path d="M17 0h-14c-1.656 0-3 1.344-3 3v26c0 1.656 1.344 3 3 3h14c1.656 0 3-1.344 3-3v-26c0-1.656-1.344-3-3-3zM10 30c-1.106 0-2-0.894-2-2s0.894-2 2-2 2 0.894 2 2-0.894 2-2 2zM17 23.25c0 0.413-0.337 0.75-0.75 0.75h-12.5c-0.413 0-0.75-0.337-0.75-0.75v-19.5c0-0.413 0.337-0.75 0.75-0.75h12.5c0.413 0 0.75 0.337 0.75 0.75v19.5z"></path>
</symbol>
<symbol id="icon-store" viewBox="0 0 39 32">
<path d="M37.625 7.412l-4.056-6.475c-0.362-0.581-1.006-0.938-1.694-0.938h-25.25c-0.688 0-1.331 0.356-1.694 0.938l-4.056 6.475c-2.094 3.344-0.238 7.994 3.675 8.525 0.281 0.037 0.569 0.056 0.856 0.056 1.85 0 3.488-0.813 4.613-2.069 1.125 1.256 2.769 2.069 4.613 2.069 1.85 0 3.488-0.813 4.613-2.069 1.125 1.256 2.769 2.069 4.613 2.069 1.85 0 3.488-0.813 4.613-2.069 1.131 1.256 2.769 2.069 4.613 2.069 0.294 0 0.575-0.019 0.856-0.056 3.925-0.525 5.788-5.175 3.688-8.525zM33.094 18c-0.625 0-1.244-0.094-1.844-0.238v6.238h-24v-6.238c-0.6 0.137-1.219 0.238-1.844 0.238-0.375 0-0.756-0.025-1.125-0.075-0.35-0.050-0.694-0.131-1.025-0.225v12.3c0 1.106 0.894 2 2 2h28c1.106 0 2-0.894 2-2v-12.3c-0.337 0.1-0.675 0.181-1.025 0.225-0.381 0.050-0.756 0.075-1.138 0.075z"></path>
</symbol>
<symbol id="icon-utensils" viewBox="0 0 26 32">
<path d="M12.994 0.95c0.050 0.294 1.006 5.906 1.006 8.050 0 3.269-1.738 5.6-4.306 6.537l0.806 14.881c0.044 0.856-0.637 1.581-1.5 1.581h-4c-0.856 0-1.544-0.719-1.5-1.581l0.806-14.881c-2.575-0.938-4.306-3.275-4.306-6.537 0-2.15 0.956-7.756 1.006-8.050 0.2-1.269 2.831-1.288 2.994 0.069v8.825c0.081 0.213 0.944 0.2 1 0 0.088-1.581 0.494-8.7 0.5-8.863 0.206-1.3 2.794-1.3 2.994 0 0.012 0.169 0.412 7.281 0.5 8.863 0.056 0.2 0.925 0.213 1 0v-8.825c0.162-1.35 2.8-1.337 3-0.069zM20.444 18.806l-0.938 11.569c-0.075 0.875 0.619 1.625 1.494 1.625h3.5c0.831 0 1.5-0.669 1.5-1.5v-29c0-0.825-0.669-1.5-1.5-1.5-5.156 0-13.838 11.156-4.056 18.806z"></path>
</symbol>
<symbol id="icon-heart-solid" viewBox="0 0 32 32">
<path d="M23.6 2c-3.363 0-6.258 2.736-7.599 5.594-1.342-2.858-4.237-5.594-7.601-5.594-4.637 0-8.4 3.764-8.4 8.401 0 9.433 9.516 11.906 16.001 21.232 6.13-9.268 15.999-12.1 15.999-21.232 0-4.637-3.763-8.401-8.4-8.401z"></path>
</symbol>
<symbol id="icon-arrow-left" viewBox="0 0 32 32">
<path d="M12.586 27.414l-10-10c-0.781-0.781-0.781-2.047 0-2.828l10-10c0.781-0.781 2.047-0.781 2.828 0s0.781 2.047 0 2.828l-6.586 6.586h19.172c1.105 0 2 0.895 2 2s-0.895 2-2 2h-19.172l6.586 6.586c0.39 0.39 0.586 0.902 0.586 1.414s-0.195 1.024-0.586 1.414c-0.781 0.781-2.047 0.781-2.828 0z"></path>
</symbol>
</defs>
</svg>
