<svg aria-hidden="true" style="position: absolute; width: 0; height: 0; overflow: hidden;" version="1.1" xmlns="http://www.w3.org/2000/svg" xmlns:xlink="http://www.w3.org/1999/xlink">
<defs>
<symbol id="icon-browser" viewBox="0 0 32 32">
<path fill="#364577" style="fill: var(--color1, #364577)" d="M31.619 11.429c-0.21 0-0.381 0.171-0.381 0.381v15.238c0 0.21-0.171 0.381-0.381 0.381h-29.714c-0.21 0-0.381-0.171-0.381-0.381v-15.238c0-0.21-0.171-0.381-0.381-0.381s-0.381 0.171-0.381 0.381v15.238c0 0.63 0.513 1.143 1.143 1.143h29.714c0.63 0 1.143-0.513 1.143-1.143v-15.238c0-0.21-0.171-0.381-0.381-0.381zM30.857 3.81h-29.714c-0.63 0-1.143 0.513-1.143 1.143v4.571c0 0.21 0.171 0.381 0.381 0.381h31.238c0.21 0 0.381-0.171 0.381-0.381v-4.571c0-0.63-0.513-1.143-1.143-1.143zM31.238 9.143h-30.476v-4.19c0-0.21 0.171-0.381 0.381-0.381h29.714c0.21 0 0.381 0.171 0.381 0.381v4.19zM13.333 25.143c0.21 0 0.381-0.171 0.381-0.381v-12.19c0-0.21-0.171-0.381-0.381-0.381h-9.905c-0.21 0-0.381 0.171-0.381 0.381v12.19c0 0.21 0.171 0.381 0.381 0.381h9.905zM3.81 12.952h9.143v11.429h-9.143v-11.429zM17.143 15.238h11.429c0.21 0 0.381-0.171 0.381-0.381s-0.171-0.381-0.381-0.381h-11.429c-0.21 0-0.381 0.171-0.381 0.381s0.171 0.381 0.381 0.381zM17.143 19.048h11.429c0.21 0 0.381-0.171 0.381-0.381s-0.171-0.381-0.381-0.381h-11.429c-0.21 0-0.381 0.171-0.381 0.381s0.171 0.381 0.381 0.381zM17.143 22.857h11.429c0.21 0 0.381-0.171 0.381-0.381s-0.171-0.381-0.381-0.381h-11.429c-0.21 0-0.381 0.171-0.381 0.381s0.171 0.381 0.381 0.381zM2.286 6.857c0 0.421 0.341 0.762 0.762 0.762s0.762-0.341 0.762-0.762c0-0.421-0.341-0.762-0.762-0.762s-0.762 0.341-0.762 0.762zM5.333 6.857c0 0.421 0.341 0.762 0.762 0.762s0.762-0.341 0.762-0.762c0-0.421-0.341-0.762-0.762-0.762s-0.762 0.341-0.762 0.762zM8.381 6.857c0 0.421 0.341 0.762 0.762 0.762s0.762-0.341 0.762-0.762c0-0.421-0.341-0.762-0.762-0.762s-0.762 0.341-0.762 0.762z"></path>
</symbol>
<symbol id="icon-dribbble-brands" viewBox="0 0 32 32">
<path fill="#fff" style="fill: var(--color2, #fff)" d="M16 0.5c-8.547 0-15.5 6.953-15.5 15.5s6.953 15.5 15.5 15.5 15.5-6.953 15.5-15.5-6.953-15.5-15.5-15.5zM26.248 7.648c1.844 2.253 2.961 5.122 2.99 8.247-0.436-0.092-4.814-0.98-9.219-0.426-0.36-0.878-0.699-1.65-1.164-2.601 4.895-1.999 7.114-4.843 7.393-5.22zM24.776 6.117c-0.238 0.339-2.231 3.018-6.939 4.782-2.169-3.986-4.574-7.261-4.94-7.75 4.198-1.012 8.623 0.079 11.879 2.968zM10.371 4.039c0.349 0.479 2.715 3.757 4.909 7.657-6.193 1.645-11.648 1.621-12.24 1.613 0.859-4.108 3.627-7.523 7.331-9.27zM2.761 16.020c0-0.135 0.003-0.27 0.007-0.405 0.579 0.012 6.995 0.095 13.607-1.884 0.379 0.742 0.741 1.495 1.073 2.247-4.787 1.348-9.137 5.22-11.283 8.894-2.115-2.347-3.404-5.452-3.404-8.852zM7.874 26.465c1.383-2.827 5.136-6.476 10.474-8.297 1.859 4.83 2.627 8.878 2.824 10.040-4.257 1.813-9.376 1.316-13.298-1.743zM23.397 26.995c-0.136-0.805-0.84-4.681-2.572-9.44 4.149-0.664 7.794 0.423 8.247 0.566-0.59 3.684-2.705 6.865-5.675 8.874z"></path>
</symbol>
<symbol id="icon-edit" viewBox="0 0 32 32">
<path fill="#364577" style="fill: var(--color1, #364577)" d="M1.5 32h29c0.827 0 1.5-0.673 1.5-1.5v-29c0-0.827-0.673-1.5-1.5-1.5h-29c-0.827 0-1.5 0.673-1.5 1.5v29c0 0.827 0.673 1.5 1.5 1.5zM1 1.5c0-0.276 0.225-0.5 0.5-0.5h29c0.275 0 0.5 0.224 0.5 0.5v29c0 0.276-0.225 0.5-0.5 0.5h-29c-0.275 0-0.5-0.224-0.5-0.5v-29zM4 28.479c0.048 0 0.096-0.007 0.143-0.021l10-2.979c0.081-0.024 0.154-0.068 0.213-0.127l10.090-10.205c0.023-0.024 0.035-0.053 0.052-0.080l3.658-3.658c0.607-0.607 0.607-1.595 0-2.203l-5.236-5.234c-0.607-0.607-1.595-0.608-2.202 0l-3.739 3.739c-0.024 0.024-0.036 0.054-0.054 0.081l-10.118 10.119c-0.056 0.056-0.098 0.124-0.122 0.199l-3.16 9.715c-0.058 0.177-0.012 0.371 0.117 0.504 0.095 0.097 0.225 0.15 0.358 0.15zM17.359 8.771l1.040 1.040-8.523 8.563-1.727-0.392 9.21-9.211zM10.5 19.165l8.607-8.646 2.434 2.434-8.745 8.547h-2.296v-2.335zM23.385 14.797l-9.246 9.352-0.576-1.999 8.684-8.489 1.138 1.136zM7.493 18.859l2.007 0.456v2.685c0 0.276 0.224 0.5 0.5 0.5h2.624l0.633 2.2-8.487 2.528 2.723-8.369zM21.425 4.679c0.218-0.217 0.572-0.216 0.788 0l5.235 5.235c0.218 0.217 0.218 0.571 0 0.789l-3.372 3.372-6.023-6.023 3.372-3.373z"></path>
</symbol>
<symbol id="icon-facebook-f-brands" viewBox="0 0 20 32">
<path fill="#fff" style="fill: var(--color2, #fff)" d="M17.446 18l0.889-5.791h-5.557v-3.758c0-1.584 0.776-3.129 3.265-3.129h2.526v-4.931s-2.293-0.391-4.484-0.391c-4.576 0-7.567 2.774-7.567 7.795v4.414h-5.087v5.791h5.087v14h6.261v-14z"></path>
</symbol>
<symbol id="icon-instagram-brands" viewBox="0 0 28 32">
<path fill="#fff" style="fill: var(--color2, #fff)" d="M14.006 8.813c-3.975 0-7.181 3.206-7.181 7.181s3.206 7.181 7.181 7.181 7.181-3.206 7.181-7.181-3.206-7.181-7.181-7.181zM14.006 20.663c-2.569 0-4.669-2.094-4.669-4.669s2.094-4.669 4.669-4.669 4.669 2.094 4.669 4.669-2.1 4.669-4.669 4.669zM23.156 8.519c0 0.931-0.75 1.675-1.675 1.675-0.931 0-1.675-0.75-1.675-1.675s0.75-1.675 1.675-1.675 1.675 0.75 1.675 1.675zM27.913 10.219c-0.106-2.244-0.619-4.231-2.262-5.869-1.637-1.638-3.625-2.15-5.869-2.263-2.313-0.131-9.244-0.131-11.556 0-2.237 0.106-4.225 0.619-5.869 2.256s-2.15 3.625-2.263 5.869c-0.131 2.313-0.131 9.244 0 11.556 0.106 2.244 0.619 4.231 2.263 5.869s3.625 2.15 5.869 2.262c2.313 0.131 9.244 0.131 11.556 0 2.244-0.106 4.231-0.619 5.869-2.262 1.637-1.637 2.15-3.625 2.262-5.869 0.131-2.313 0.131-9.238 0-11.55zM24.925 24.25c-0.488 1.225-1.431 2.169-2.663 2.663-1.844 0.731-6.219 0.563-8.256 0.563s-6.419 0.163-8.256-0.563c-1.225-0.488-2.169-1.431-2.663-2.663-0.731-1.844-0.563-6.219-0.563-8.256s-0.163-6.419 0.563-8.256c0.487-1.225 1.431-2.169 2.663-2.662 1.844-0.731 6.219-0.563 8.256-0.563s6.419-0.162 8.256 0.563c1.225 0.487 2.169 1.431 2.663 2.662 0.731 1.844 0.563 6.219 0.563 8.256s0.169 6.419-0.563 8.256z"></path>
</symbol>
<symbol id="icon-presentation" viewBox="0 0 32 32">
<path fill="#364577" style="fill: var(--color1, #364577)" d="M1 3c-0.276 0-0.5 0.224-0.5 0.5v17c0 0.827 0.673 1.5 1.5 1.5h28c0.827 0 1.5-0.673 1.5-1.5v-17c0-0.276-0.224-0.5-0.5-0.5s-0.5 0.224-0.5 0.5v17c0 0.276-0.224 0.5-0.5 0.5h-28c-0.276 0-0.5-0.224-0.5-0.5v-17c0-0.276-0.224-0.5-0.5-0.5zM33 0h-34c-0.276 0-0.5 0.224-0.5 0.5s0.224 0.5 0.5 0.5h34c0.276 0 0.5-0.224 0.5-0.5s-0.224-0.5-0.5-0.5zM12.354 8.146c-0.183-0.183-0.475-0.196-0.674-0.031l-6 5c-0.212 0.177-0.241 0.492-0.064 0.705 0.177 0.212 0.491 0.241 0.705 0.064l5.649-4.708 5.677 5.677c0.097 0.098 0.225 0.147 0.353 0.147s0.256-0.049 0.354-0.146l7.146-7.147v3.793c0 0.276 0.224 0.5 0.5 0.5s0.5-0.224 0.5-0.5v-5c0-0.065-0.013-0.13-0.038-0.191-0.051-0.122-0.148-0.22-0.271-0.271-0.061-0.025-0.126-0.038-0.191-0.038h-5c-0.276 0-0.5 0.224-0.5 0.5s0.224 0.5 0.5 0.5h3.793l-6.793 6.793-5.646-5.647zM8.557 31.732c0.128 0.245 0.43 0.339 0.675 0.211l6.768-3.545 6.768 3.545c0.074 0.039 0.153 0.057 0.232 0.057 0.18 0 0.354-0.098 0.443-0.268 0.128-0.245 0.034-0.547-0.211-0.675l-6.893-3.61c0.098-0.091 0.161-0.219 0.161-0.364v-2.583c0-0.276-0.224-0.5-0.5-0.5s-0.5 0.224-0.5 0.5v2.583c0 0.144 0.063 0.272 0.161 0.363l-6.893 3.61c-0.245 0.129-0.339 0.431-0.211 0.676z"></path>
</symbol>
<symbol id="icon-twitter-brands" viewBox="0 0 32 32">
<path fill="#fff" style="fill: var(--color2, #fff)" d="M28.711 9.482c0.020 0.284 0.020 0.569 0.020 0.853 0 8.67-6.599 18.66-18.66 18.66-3.716 0-7.168-1.076-10.071-2.944 0.528 0.061 1.036 0.081 1.584 0.081 3.066 0 5.888-1.035 8.142-2.802-2.883-0.061-5.3-1.949-6.132-4.548 0.406 0.061 0.812 0.102 1.239 0.102 0.589 0 1.178-0.081 1.726-0.223-3.005-0.609-5.259-3.249-5.259-6.437v-0.081c0.873 0.487 1.888 0.792 2.964 0.832-1.766-1.178-2.924-3.188-2.924-5.462 0-1.218 0.325-2.335 0.893-3.31 3.228 3.98 8.081 6.579 13.523 6.863-0.101-0.487-0.162-0.995-0.162-1.502 0-3.614 2.924-6.558 6.558-6.558 1.888 0 3.594 0.792 4.792 2.071 1.482-0.284 2.904-0.832 4.162-1.584-0.487 1.523-1.523 2.802-2.883 3.614 1.32-0.142 2.599-0.508 3.777-1.015-0.893 1.299-2.010 2.457-3.289 3.391z"></path>
</symbol>
<symbol id="icon-chevron-left-solid" viewBox="0 0 20 32">
<path d="M2.158 14.939l12.147-12.146c0.586-0.586 1.536-0.586 2.121 0l1.417 1.417c0.585 0.585 0.586 1.532 0.003 2.119l-9.627 9.671 9.626 9.672c0.584 0.586 0.582 1.534-0.003 2.119l-1.417 1.417c-0.586 0.586-1.536 0.586-2.121 0l-12.146-12.147c-0.586-0.586-0.586-1.536 0-2.121z"></path>
</symbol>
<symbol id="icon-chevron-right-solid" viewBox="0 0 20 32">
<path d="M17.842 17.061l-12.146 12.146c-0.586 0.586-1.536 0.586-2.121 0l-1.417-1.417c-0.585-0.585-0.586-1.533-0.002-2.119l9.626-9.672-9.626-9.672c-0.583-0.586-0.582-1.534 0.002-2.119l1.417-1.417c0.586-0.586 1.536-0.586 2.121 0l12.146 12.146c0.586 0.586 0.586 1.536 0 2.121z"></path>
</symbol>
<symbol id="icon-chevron-up-solid" viewBox="0 0 28 32">
<path d="M15.061 8.158l12.146 12.146c0.586 0.586 0.586 1.536 0 2.121l-1.417 1.417c-0.585 0.585-1.533 0.586-2.119 0.003l-9.672-9.626-9.672 9.626c-0.586 0.583-1.534 0.582-2.119-0.003l-1.417-1.417c-0.586-0.586-0.586-1.536 0-2.121l12.146-12.146c0.586-0.586 1.536-0.586 2.121-0z"></path>
</symbol>
</defs>
</svg>
